<?xml version="1.0" standalone="no"?>
<!DOCTYPE svg PUBLIC "-//W3C//DTD SVG 20010904//EN"
 "http://www.w3.org/TR/2001/REC-SVG-20010904/DTD/svg10.dtd">
<svg version="1.0" xmlns="http://www.w3.org/2000/svg"
 width="2111.000000pt" height="2111.000000pt" viewBox="0 0 2111.000000 2111.000000"
 preserveAspectRatio="xMidYMid meet">
<metadata>
Created by potrace 1.14, written by Peter Selinger 2001-2017
</metadata>
<g transform="translate(0.000000,2111.000000) scale(0.100000,-0.100000)"
fill="#000000" stroke="none">
<path d="M11228 21105 c-1 -1 -68 -6 -148 -9 -80 -4 -167 -9 -195 -11 -27 -2
-86 -7 -130 -10 -76 -5 -118 -9 -210 -20 -22 -2 -69 -7 -105 -10 -36 -3 -76
-8 -90 -10 -14 -2 -50 -7 -80 -10 -30 -3 -102 -13 -160 -21 -58 -8 -121 -17
-140 -20 -19 -3 -100 -16 -180 -30 -80 -14 -156 -27 -170 -29 -14 -2 -61 -11
-105 -20 -114 -24 -117 -25 -150 -31 -16 -2 -46 -9 -65 -14 -19 -5 -47 -11
-62 -14 -43 -7 -205 -46 -308 -73 -52 -14 -102 -26 -110 -28 -27 -5 -272 -74
-360 -101 -789 -241 -1507 -545 -2210 -937 -148 -82 -463 -268 -470 -278 -3
-3 -16 -12 -30 -19 -33 -17 -320 -206 -435 -287 -49 -35 -98 -69 -109 -76 -10
-6 -37 -26 -60 -43 -22 -17 -86 -64 -141 -105 -55 -40 -102 -76 -105 -79 -3
-3 -45 -37 -95 -75 -49 -38 -92 -72 -95 -75 -3 -3 -27 -23 -55 -45 -27 -21
-52 -42 -55 -45 -3 -3 -18 -16 -35 -29 -48 -37 -282 -240 -370 -320 -27 -25
-76 -71 -110 -101 -33 -30 -161 -156 -285 -280 -337 -338 -498 -517 -846 -943
-8 -10 -68 -89 -134 -175 -66 -86 -126 -165 -134 -175 -81 -104 -374 -541
-483 -720 -88 -143 -173 -287 -204 -345 -13 -24 -28 -51 -34 -60 -5 -9 -32
-57 -59 -107 -27 -49 -61 -112 -76 -140 -148 -269 -409 -841 -529 -1160 -13
-33 -27 -69 -32 -80 -5 -11 -26 -69 -48 -130 -21 -60 -44 -123 -51 -140 -44
-112 -256 -810 -275 -905 -2 -9 -21 -92 -44 -185 -36 -150 -47 -203 -67 -305
-3 -14 -9 -41 -14 -60 -5 -19 -11 -52 -14 -72 -3 -21 -10 -57 -15 -80 -5 -24
-12 -59 -15 -78 -3 -19 -8 -46 -11 -60 -2 -13 -7 -40 -10 -60 -3 -20 -7 -45
-9 -55 -4 -20 -32 -206 -42 -275 -2 -19 -7 -57 -10 -85 -3 -27 -7 -57 -9 -65
-2 -8 -7 -46 -11 -85 -3 -38 -7 -76 -9 -85 -2 -8 -6 -51 -10 -95 -4 -44 -9
-93 -11 -110 -1 -16 -6 -70 -9 -120 -4 -49 -9 -106 -10 -125 -15 -155 -20
-432 -20 -1100 1 -862 8 -1220 40 -2040 6 -155 16 -374 21 -440 2 -36 6 -116
9 -179 3 -63 8 -142 10 -175 3 -34 7 -99 10 -146 12 -196 25 -380 30 -425 2
-22 7 -76 10 -120 3 -44 8 -96 10 -115 2 -19 7 -75 11 -125 3 -49 8 -97 9
-106 2 -9 6 -52 10 -95 4 -43 8 -90 10 -104 2 -14 7 -56 10 -95 4 -38 8 -81
10 -95 4 -27 11 -94 20 -180 4 -30 8 -66 10 -80 2 -14 7 -50 10 -80 3 -30 8
-66 10 -80 2 -14 7 -49 10 -79 4 -30 8 -61 10 -70 1 -9 6 -38 9 -66 6 -45 37
-256 51 -345 4 -19 15 -88 26 -153 19 -106 20 -174 5 -217 -3 -8 -7 -28 -10
-45 -3 -16 -23 -129 -45 -250 -22 -121 -42 -238 -45 -260 -4 -23 -8 -52 -11
-65 -3 -13 -7 -42 -10 -65 -3 -22 -8 -47 -10 -55 -2 -8 -7 -39 -10 -69 -4 -30
-8 -62 -10 -71 -2 -9 -6 -41 -10 -71 -3 -30 -8 -61 -10 -69 -2 -8 -6 -40 -10
-71 -3 -31 -7 -65 -9 -75 -4 -20 -13 -92 -21 -164 -7 -59 -15 -128 -20 -165
-2 -16 -7 -61 -10 -100 -4 -38 -8 -81 -11 -95 -2 -14 -6 -59 -9 -100 -3 -41
-8 -91 -10 -110 -5 -41 -12 -116 -20 -220 -3 -41 -8 -95 -10 -120 -2 -25 -6
-88 -10 -140 -3 -52 -8 -122 -10 -155 -3 -33 -7 -102 -9 -155 -3 -52 -8 -153
-11 -225 -12 -224 -14 -309 -21 -732 l-7 -413 1114 0 1114 0 1 243 c1 213 10
565 19 772 6 126 16 319 20 380 15 221 18 257 29 390 3 28 7 88 11 135 3 47 8
96 10 110 3 14 7 59 10 100 3 41 7 82 9 90 3 8 8 51 11 94 4 43 8 86 10 95 1
9 6 45 10 81 3 36 10 92 15 125 5 33 14 101 21 150 6 50 13 99 14 110 4 24 15
100 20 135 5 33 35 218 41 250 2 14 7 45 10 69 3 25 7 48 9 51 2 4 7 29 11 56
3 27 8 51 9 54 2 3 6 26 10 50 3 25 15 86 25 135 11 50 22 106 25 125 3 19 15
73 25 120 10 47 21 96 23 110 3 14 10 43 15 65 6 22 13 51 15 65 4 20 48 202
112 460 7 27 82 292 113 401 83 284 300 916 366 1064 8 17 33 77 56 135 23 58
47 119 55 135 33 76 56 129 105 240 89 203 356 738 444 890 13 22 36 63 52 90
15 28 36 66 47 85 111 200 383 625 562 880 155 221 417 563 571 748 119 142
213 251 234 272 8 8 33 35 54 60 133 152 463 499 621 650 134 129 187 179 281
265 54 50 112 103 129 119 16 15 54 49 84 75 30 25 70 60 90 78 66 57 196 168
240 203 24 19 48 40 55 45 6 6 33 28 61 50 27 22 56 46 63 53 8 7 30 25 50 40
21 15 39 30 42 33 26 31 684 519 699 519 6 0 14 6 18 13 4 7 34 31 67 52 32
22 85 58 116 80 246 169 497 333 780 507 124 76 232 143 240 148 322 207 547
187 527 -47 -7 -86 -8 -91 -47 -192 -65 -167 -222 -404 -423 -634 -92 -106
-425 -440 -541 -542 -44 -39 -87 -77 -96 -85 -9 -8 -36 -33 -60 -54 -380 -334
-985 -932 -1290 -1276 -36 -41 -72 -81 -80 -90 -30 -32 -247 -286 -285 -335
-22 -27 -43 -52 -46 -55 -33 -29 -348 -447 -475 -630 -152 -218 -364 -553
-437 -690 -14 -25 -34 -61 -46 -80 -55 -93 -231 -441 -313 -620 -96 -210 -268
-632 -283 -695 -1 -5 -7 -22 -13 -37 -55 -133 -213 -674 -277 -948 -30 -124
-87 -382 -90 -405 -4 -28 -8 -47 -20 -105 -11 -51 -29 -150 -39 -220 -3 -19
-8 -46 -10 -60 -7 -34 -33 -204 -41 -260 -3 -25 -8 -56 -10 -70 -8 -59 -15
-108 -19 -145 -6 -43 -13 -101 -21 -162 -6 -50 -12 -104 -20 -183 -3 -36 -8
-81 -10 -100 -2 -19 -7 -71 -11 -115 -3 -44 -8 -91 -10 -105 -3 -25 -15 -188
-17 -245 l-2 -30 1280 0 c1141 1 1423 4 1695 20 41 2 117 6 169 9 90 5 130 8
286 22 39 3 90 7 115 9 59 5 165 15 210 20 19 2 58 7 85 10 76 8 136 15 175
20 111 13 147 18 161 20 9 2 40 6 70 10 30 3 79 10 109 15 30 5 75 12 100 15
25 3 124 20 220 36 96 17 189 32 205 34 26 4 50 9 155 30 38 8 122 25 150 30
34 6 56 11 115 25 28 6 61 14 75 16 14 3 54 12 90 20 36 9 74 17 85 20 41 8
496 124 542 138 27 8 75 22 108 32 99 28 145 42 247 74 53 17 104 33 115 35
24 5 275 91 453 155 244 87 648 251 880 357 217 99 580 278 715 353 28 15 82
44 120 65 287 155 701 412 1025 636 172 118 581 424 600 448 3 3 22 18 42 33
49 37 279 229 369 309 211 187 300 271 540 509 260 260 397 407 684 741 173
201 492 617 670 874 117 168 309 459 325 490 3 6 23 37 44 70 22 33 81 132
133 220 52 88 98 167 103 175 137 232 371 678 495 945 19 41 51 110 71 153 20
42 54 118 76 167 22 50 49 109 59 133 38 82 186 448 243 597 31 83 61 159 66
170 22 50 246 707 256 750 1 6 16 55 34 110 34 110 120 401 125 425 2 8 17 65
34 125 17 61 33 119 36 130 2 11 31 126 64 255 32 129 65 262 72 295 7 33 13
62 14 65 12 50 16 68 19 85 3 11 16 72 30 135 27 125 63 300 70 340 2 14 7 36
10 50 3 14 8 37 10 53 5 28 23 125 30 163 2 12 7 37 10 55 3 19 8 44 10 56 3
11 8 43 12 70 5 26 9 50 9 53 2 10 17 96 21 125 3 17 7 37 9 45 2 8 6 35 9 60
3 25 8 54 10 65 2 11 7 45 11 75 4 30 9 64 11 75 3 11 6 35 9 54 6 45 15 111
20 141 2 14 9 63 15 110 6 47 13 103 17 125 3 22 6 51 8 65 13 122 17 157 20
170 2 8 7 49 10 90 3 41 8 82 10 90 2 8 7 49 10 90 4 41 8 86 10 100 3 14 7
57 9 95 3 39 8 93 11 120 10 93 15 150 20 225 3 41 7 98 10 125 7 78 15 192
20 285 3 47 7 123 11 170 8 128 13 231 19 385 3 77 8 183 12 235 3 52 8 790
10 1639 l5 1544 -29 -8 c-15 -4 -35 -8 -43 -10 -8 -2 -53 -14 -100 -25 -47
-12 -116 -28 -155 -36 -93 -20 -90 -20 -170 -39 -38 -9 -83 -19 -100 -22 -16
-2 -47 -9 -69 -14 -21 -6 -82 -19 -135 -29 -53 -11 -106 -21 -117 -24 -12 -2
-37 -7 -55 -10 -19 -3 -45 -8 -59 -11 -28 -6 -176 -33 -229 -41 -18 -3 -43 -8
-55 -10 -11 -2 -37 -7 -56 -10 -19 -3 -89 -14 -155 -24 -66 -11 -136 -22 -155
-25 -33 -4 -65 -9 -135 -19 -16 -3 -57 -8 -90 -12 -33 -3 -68 -8 -79 -10 -10
-2 -44 -6 -75 -9 -31 -4 -67 -8 -81 -11 -14 -2 -52 -6 -85 -9 -33 -3 -76 -7
-95 -10 -19 -2 -64 -7 -100 -10 -36 -3 -81 -8 -100 -10 -19 -2 -69 -7 -110
-10 -41 -3 -104 -7 -140 -10 -36 -3 -92 -7 -125 -9 -67 -5 -283 -16 -450 -21
-128 -5 -804 -5 -915 0 -129 5 -342 15 -415 20 -131 9 -332 24 -395 30 -25 3
-117 12 -205 21 -88 8 -178 17 -200 19 -22 2 -58 6 -80 9 -22 3 -80 10 -130
16 -125 15 -132 16 -385 50 -225 31 -263 37 -310 45 -14 2 -45 7 -70 10 -25 3
-56 7 -70 9 -24 5 -83 14 -125 21 -11 1 -42 6 -70 9 -27 4 -75 11 -105 16 -30
5 -77 12 -105 16 -27 3 -59 8 -70 10 -10 2 -37 6 -60 9 -22 4 -51 8 -65 10
-14 2 -74 11 -135 20 -60 8 -126 18 -145 21 -65 9 -175 24 -210 29 -19 2 -60
7 -90 11 -30 3 -62 8 -70 9 -8 1 -46 6 -85 9 -38 4 -81 9 -95 11 -14 2 -54 6
-90 9 -36 3 -81 8 -100 10 -19 3 -73 7 -120 11 -47 4 -105 9 -130 11 -52 5
-927 14 -932 9z"/>
</g>
</svg>
